<svg version="1.0" width="85.000000pt" height="85.000000pt" viewBox="0 0 100.000000 100.000000" preserveAspectRatio="xMidYMid meet">
    <g transform="translate(0.000000,100.000000) scale(0.100000,-0.100000)" fill="#000000" stroke="none">
        <path d="M22 728 c-8 -10 -5 -48 10 -142 l20 -127 -21 -92 c-16 -69 -18 -92
                        -9 -98 18 -11 26 -2 38 41 l11 40 93 0 93 0 7 -39 c7 -43 15 -54 34 -42 16 10
                        -4 192 -22 203 -6 4 -50 8 -97 8 l-85 0 -22 122 c-22 126 -31 148 -50 126z"></path>
        <path d="M955 730 c-5 -8 -45 -222 -45 -242 0 -5 -40 -8 -89 -8 -59 0 -92 -4
                        -99 -12 -5 -7 -15 -53 -21 -102 -8 -70 -8 -92 2 -98 16 -10 37 19 37 54 l0 28
                        95 0 94 0 11 -40 c12 -44 20 -52 39 -41 9 6 7 27 -10 99 l-21 91 21 124 c20
                        118 20 157 1 157 -5 0 -12 -4 -15 -10z"></path>
        <path d="M232 638 c-8 -8 -9 -15 -1 -25 8 -9 44 -13 130 -13 l119 0 0 -130 0
                        -129 -32 -17 c-52 -26 -60 -35 -47 -50 9 -11 19 -9 55 9 l44 21 44 -21 c36
                        -18 46 -20 55 -9 13 15 5 24 -46 50 l-33 17 0 129 0 130 118 0 c122 0 154 9
                        131 37 -15 18 -519 19 -537 1z"></path>
    </g>
</svg>
