<svg width="80" height="80" viewBox="0 0 61 60" fill="none"><rect width="60" height="60" transform="translate(0.5)"></rect><path d="M13.8008 2.97657C12.6172 3.49219 12.3359 5.06251 13.2617 5.98829C14.5742 7.3125 16.7304 6.12891 16.3906 4.27735C16.1797 3.17579 14.8554 2.50782 13.8008 2.97657Z" fill="#1B75BB"></path><path d="M25.9883 5.78907C24.8047 6.30469 24.5234 7.87501 25.4492 8.80079C26.7617 10.125 28.918 8.94141 28.5781 7.08985C28.3672 5.98829 27.043 5.32032 25.9883 5.78907Z" fill="#1B75BB"></path><path d="M39.1719 5.8125C37.0977 6.25781 35.0938 7.81641 34.1445 9.72656C33.5352 10.9805 33.3125 12.0117 33.3125 13.6758V15H35.5742C38.2461 15 39.043 14.8594 40.4609 14.168C42.3828 13.2188 43.9531 11.1797 44.3867 9.08203C44.4805 8.625 44.5625 7.66406 44.5625 6.9375V5.625L42.2539 5.63672C40.7422 5.63672 39.6641 5.69531 39.1719 5.8125Z" fill="#1B75BB"></path><path d="M8.70314 12.0703C6.98049 12.2812 5.75002 12.8086 4.92971 13.6875C4.30861 14.3555 4.19143 14.6602 4.2969 15.3984C4.56643 17.1328 9.27736 24.4922 12.957 28.9102L13.8594 30H14.6797H15.5L15.4297 29.6719C14.2695 24.457 12.1016 20.4141 8.56252 16.8281L7.41408 15.6797L8.02346 14.9766L8.62111 14.2852L9.72267 15.375C11.0469 16.6758 12.4766 18.4219 13.4141 19.8633C14.7617 21.9375 16.1328 24.9258 16.6836 26.9531C16.8242 27.5039 16.9883 27.9961 17.0352 28.043C17.1524 28.1953 17.7969 26.4609 18.043 25.3125C18.336 23.9297 18.336 20.9531 18.043 19.5703C17.7735 18.3281 17.1875 16.7578 16.6602 15.8555C16.4375 15.4805 15.8281 14.7422 15.3125 14.2031C14.5508 13.4414 14.1758 13.1602 13.4961 12.8438C11.9961 12.1641 10.2735 11.8828 8.70314 12.0703Z" fill="#1B75BB"></path><path d="M20.6796 14.2852C20.0234 14.5078 19.3554 14.9883 18.9804 15.4922C18.7578 15.7969 18.7578 15.7969 19.0625 16.5586C20.2109 19.4297 20.4804 22.8984 19.789 25.8984C19.6367 26.5781 19.4609 27.2344 19.414 27.3633C19.1093 28.207 20.621 25.957 21.3007 24.5508C21.9687 23.1797 22.5664 21.3398 22.8359 19.8281L23.0468 18.6328L23.3984 18.6797C23.5976 18.7148 24.0195 18.7734 24.3242 18.8086L24.8984 18.8789L24.8164 19.3711C24.2421 23.1914 22.7656 26.5195 20.4804 29.2266L19.8242 30H22.0156H24.1953L24.125 29.7305C24.0781 29.5898 24.0078 29.0273 23.9726 28.4766C23.7968 25.582 25.4609 22.7109 28.0625 21.457C28.6015 21.1992 29.1406 20.9766 29.246 20.9766C29.832 20.9766 29.0468 18.7266 27.9687 17.332C26.1054 14.9062 22.8359 13.5469 20.6796 14.2852Z" fill="#1B75BB"></path><path d="M46.789 15.6328C45.3476 16.1836 44.2929 17.0156 43.6367 18.1055C43.2851 18.6914 43.2265 18.9023 43.1797 19.7344C43.1328 20.5547 43.1914 20.9531 43.5781 22.5C44.3047 25.4531 44.164 26.4492 42.875 27.2461C42.3593 27.5625 42.207 27.5977 41.4101 27.5859C40.9179 27.5742 40.1914 27.4805 39.8047 27.375C39.4062 27.2695 39.0312 27.1875 38.9843 27.1875C38.9258 27.1875 38.8789 27.6211 38.8789 28.1484C38.8789 28.6875 38.8437 29.3203 38.7968 29.5664L38.7148 30L41.7148 29.9766L44.7265 29.9414L45.1015 28.0664C45.3125 27.0352 45.6172 25.6406 45.7929 24.9609C46.1914 23.3672 47.2461 19.7695 47.375 19.5586C47.4687 19.4297 47.6211 19.4414 48.3125 19.6875C48.7578 19.8398 49.1328 20.0156 49.1328 20.0742C49.1328 20.1328 48.9218 20.8477 48.664 21.6562C47.9023 24.1055 46.6718 29.1445 46.6718 29.8242C46.6718 29.9766 47.2578 30 51.3008 30C53.8437 30 55.9297 29.9531 55.9297 29.8945C55.9297 29.8477 55.6367 29.5312 55.2851 29.1914C54.3359 28.2891 53.4336 27.9141 51.7929 27.7266C50.3515 27.5625 49.8593 27.3633 49.4492 26.8125C49.1562 26.4258 49.1445 25.7344 49.4258 25.1953C49.5429 24.9727 49.8828 24.4688 50.1875 24.0703C51.125 22.8398 51.289 22.2891 51.289 20.1562C51.3008 18.1758 51.1718 17.5195 50.5742 16.6172C50.0703 15.8672 49.3906 15.5508 48.207 15.5039C47.5625 15.4805 47.0468 15.5273 46.789 15.6328Z" fill="#1B75BB"></path><path d="M29.6679 22.793C28.8593 23.0859 28.2382 23.4609 27.6523 24C27.1249 24.4922 26.3984 25.4648 26.3984 25.6758C26.3984 25.7227 26.7382 25.875 27.1601 26.0156C27.582 26.1563 27.9218 26.2969 27.9218 26.332C27.9218 26.6484 27.4062 28.0078 27.289 28.0078C27.207 28.0078 26.832 27.9023 26.457 27.7734L25.7773 27.5391L25.8476 28.4531C25.8828 28.9453 25.9648 29.4961 26.0351 29.6719L26.164 30H31.4374H36.7109L36.8163 29.7305C36.8749 29.5898 36.957 29.25 37.0038 28.9805L37.0859 28.4883L36.4062 28.7109C36.0429 28.8398 35.6796 28.9453 35.5976 28.9453C35.4921 28.9453 34.9531 27.5508 34.9531 27.2813C34.9531 27.2344 35.3749 27.0703 35.8906 26.8945C36.9687 26.5313 36.957 26.5898 36.3359 25.4063C35.6913 24.1758 34.0507 22.9219 32.7617 22.6641L32.3749 22.582V23.4844V24.375H31.4374H30.4999V23.4961C30.4999 22.5117 30.4765 22.4883 29.6679 22.793ZM32.3749 27.1875V28.125H31.4374H30.4999V27.1875V26.25H31.4374H32.3749V27.1875Z" fill="#1B75BB"></path><path d="M7.41406 26.4141C5.11719 27.375 4.26172 28.207 4.25 29.4961V30H7.83594H11.4219L10.9297 29.3789C10.6484 29.0508 9.98047 28.1719 9.42969 27.4453C8.86719 26.6953 8.36328 26.1328 8.2461 26.1328C8.14063 26.1445 7.76563 26.2617 7.41406 26.4141Z" fill="#1B75BB"></path><path d="M4.30856 32.7188C4.8945 39.0938 7.36716 44.4961 11.6914 48.8086C15.9453 53.0391 21.3593 55.5821 27.3711 56.1446C29.2578 56.3204 33.6289 56.2266 35.2109 55.9688C45.3711 54.3516 53.5039 46.9454 55.9883 37.043C56.2695 35.9063 56.5625 34.1016 56.6914 32.6602L56.7734 31.8751H30.5H4.23825L4.30856 32.7188ZM11.6093 42.1524C13.5664 44.9532 16.3906 47.4844 19.3672 49.1133C19.9765 49.4532 20.5039 49.7461 20.5273 49.7696C20.5625 49.793 20.3984 50.1797 20.1875 50.6251C19.8945 51.2344 19.7422 51.4336 19.6015 51.3868C19.5078 51.3516 18.8633 51.0001 18.1836 50.6133C14.9492 48.7618 11.8554 45.8907 9.75778 42.7852L9.06638 41.7422L9.85153 41.2618C10.5781 40.8282 10.6484 40.8047 10.789 40.9922C10.8711 41.0977 11.2461 41.6251 11.6093 42.1524ZM23.9375 51.5626V52.5001H23H22.0625V51.5626V50.6251H23H23.9375V51.5626Z" fill="#1B75BB"></path></svg>
