<svg version="1.1" id="Layer_1" xmlns="http://www.w3.org/2000/svg" xmlns:xlink="http://www.w3.org/1999/xlink"
     x="0px" y="0px" viewBox="0 0 512 512" style="width: 28px;" xml:space="preserve">
  <path style="fill:#fff;"
        d="M206.313,385.392c-3.529,0-7.06-1.348-9.753-4.04c-5.386-5.386-5.386-14.119,0-19.507l99.769-99.769
	c5.386-5.385,14.119-5.385,19.507,0c5.386,5.386,5.386,14.119,0,19.507l-99.769,99.769
	C213.372,384.044,209.843,385.392,206.313,385.392z" />
    <path style="fill:#fff;"
          d="M357.635,281.481c-17.83,17.83-45.984,18.583-62.884,1.681
	c-16.901-16.901-16.148-45.056,1.681-62.884c17.83-17.83,57.741-30.339,74.642-13.438
	C387.974,223.739,375.464,263.651,357.635,281.481z" />
    <g>
    <path style="fill:#fff;"
          d="M324.649,309.153c-15.097,0-29.179-5.768-39.652-16.238c-10.878-10.879-16.638-25.516-16.217-41.216
		c0.412-15.423,6.769-30.044,17.898-41.176c14.997-14.995,40.306-25.468,61.55-25.468c13.456,0,24.729,4.161,32.597,12.03
		c24.258,24.26,7.976,72.73-13.438,94.149C355.832,302.789,340.653,309.153,324.649,309.153z M348.228,212.641
		c-13.826,0-32.294,7.638-42.045,17.388c-6.116,6.116-9.606,14.072-9.829,22.406c-0.215,8.055,2.678,15.503,8.149,20.973
		c5.26,5.262,12.416,8.16,20.145,8.16c8.637,0,16.888-3.494,23.233-9.841c15.06-15.061,22.596-45.979,13.438-55.137
		C358.055,213.327,352.399,212.641,348.228,212.641z" />
        <path style="fill:#fff;"
              d="M317.605,387.78c-3.531,0-7.059-1.348-9.753-4.04l-96.416-96.416
		c-5.386-5.386-5.386-14.119,0-19.507c5.386-5.385,14.119-5.383,19.505,0l96.416,96.416c5.386,5.386,5.386,14.119,0,19.507
		C324.665,386.433,321.134,387.78,317.605,387.78z" />
        <path style="fill:#fff;"
              d="M187.442,311.074c-9.761,0-18.937-3.801-25.839-10.703l-38.423-38.423
		c-5.386-5.386-5.386-14.119,0-19.507c5.386-5.385,14.119-5.385,19.507,0l38.423,38.423c1.692,1.692,3.941,2.623,6.333,2.623
		s4.643-0.932,6.333-2.623l30.708-30.706c1.692-1.692,2.623-3.941,2.623-6.333s-0.931-4.643-2.623-6.335l-38.426-38.422
		c-5.386-5.386-5.386-14.119,0-19.507c5.386-5.385,14.119-5.385,19.507,0l38.423,38.423c6.902,6.902,10.703,16.079,10.703,25.84
		c0,9.76-3.801,18.937-10.703,25.839l-30.708,30.706C206.381,307.273,197.205,311.074,187.442,311.074z" />
        <path style="fill:#fff;"
              d="M212.805,282.98c-3.531,0-7.059-1.348-9.753-4.04l-48.209-48.209
		c-5.386-5.386-5.386-14.119,0-19.507c5.386-5.385,14.119-5.383,19.505,0l48.209,48.209c5.386,5.386,5.386,14.119,0,19.507
		C219.864,281.633,216.335,282.98,212.805,282.98z" />
        <path style="fill:#fff;"
              d="M355.617,171.21c-7.618,0-13.792-6.176-13.792-13.792v-73.99c0-3.181-1.239-6.171-3.488-8.419
		l-43.937-43.937c-2.248-2.25-5.238-3.487-8.419-3.487h-59.964c-3.181,0-6.171,1.237-8.419,3.487l-43.939,43.937
		c-2.248,2.248-3.487,5.238-3.487,8.419v73.99c0,7.616-6.175,13.792-13.792,13.792s-13.792-6.176-13.792-13.792v-73.99
		c0-10.547,4.109-20.465,11.566-27.924l43.939-43.937C205.551,4.109,215.467,0,226.016,0h59.964
		c10.548,0,20.465,4.109,27.924,11.566l43.937,43.937c7.459,7.459,11.568,17.377,11.568,27.924v73.99
		C369.409,165.034,363.234,171.21,355.617,171.21z" />
        <path style="fill:#fff;"
              d="M414.124,512H97.871c-12.693,0-24.504-5.063-33.255-14.257
		c-8.753-9.194-13.228-21.239-12.604-33.918l14.808-314.11c1.208-24.509,21.352-43.684,45.86-43.684h286.637
		c24.508,0,44.652,19.174,45.859,43.652l8.558,181.545c0.359,7.609-5.518,14.067-13.128,14.427
		c-7.608,0.31-14.068-5.52-14.426-13.129l-8.557-181.514c-0.481-9.742-8.522-17.396-18.305-17.396H112.679
		c-9.783,0-17.825,7.655-18.307,17.428l-14.808,314.11c-0.251,5.091,1.536,9.9,5.03,13.572c3.494,3.669,8.209,5.691,13.275,5.691
		h316.254c5.067,0,9.782-2.022,13.275-5.691c3.494-3.672,5.281-8.48,5.031-13.541l-1.996-42.335
		c-0.359-7.609,5.518-14.067,13.128-14.427c7.593-0.341,14.067,5.52,14.426,13.129l1.994,42.306
		c0.623,12.649-3.852,24.694-12.605,33.888C438.63,506.937,426.819,512,414.124,512z" />
  </g>
    <path style="fill:#fff;"
          d="M444.214,422.199H67.782l-1.994,42.306c-0.905,18.34,13.721,33.705,32.083,33.705h316.254
	c18.362,0,32.987-15.365,32.083-33.705L444.214,422.199z" />
    <path style="fill:#fff;"
          d="M414.124,512H97.871c-12.695,0-24.505-5.063-33.256-14.257c-8.751-9.194-13.227-21.24-12.602-33.918
	l1.993-42.275c0.346-7.357,6.412-13.143,13.777-13.143h376.432c7.365,0,13.43,5.786,13.777,13.143l1.994,42.306
	c0.625,12.648-3.851,24.694-12.604,33.888C438.63,506.937,426.819,512,414.124,512z M80.94,435.99l-1.375,29.163
	c-0.251,5.091,1.535,9.9,5.029,13.57c3.494,3.67,8.209,5.692,13.277,5.692h316.254c5.067,0,9.783-2.022,13.277-5.692
	c3.494-3.67,5.281-8.478,5.03-13.54l-1.376-29.192H80.94V435.99z" />
</svg>
