<svg version="1.0" width="85.000000pt" height="85.000000pt" viewBox="0 0 100.000000 100.000000" preserveAspectRatio="xMidYMid meet">
    <g transform="translate(0.000000,100.000000) scale(0.100000,-0.100000)" fill="#000000" stroke="none">
        <path d="M212 937 c-28 -28 -32 -40 -32 -85 l0 -51 -72 -3 -73 -3 -3 -356 c-3
                        -437 -15 -402 147 -407 96 -3 111 -2 111 12 0 14 -15 16 -99 16 -77 0 -103 4
                        -115 16 -14 13 -16 60 -16 355 l0 339 60 0 60 0 0 -76 0 -75 43 3 42 3 3 73 3
                        72 99 0 99 0 3 -72 3 -73 43 -3 42 -3 0 75 0 76 60 0 60 0 0 -158 0 -158 -30
                        -34 c-34 -40 -36 -56 -14 -81 9 -10 18 -36 21 -58 l6 -41 -58 0 -58 0 6 41 c3
                        22 12 48 21 58 23 25 20 37 -21 87 l-37 44 -93 0 c-92 0 -93 0 -107 -29 -9
                        -16 -22 -31 -31 -34 -19 -8 -20 -63 -1 -74 7 -4 16 -26 19 -48 6 -39 5 -41
                        -26 -50 -22 -7 -33 -17 -35 -33 -4 -28 14 -52 39 -52 18 0 22 -8 34 -68 9 -43
                        29 -52 118 -52 59 0 77 4 90 18 10 10 17 24 17 30 0 8 22 12 65 12 50 0 65 -3
                        65 -14 0 -33 30 -46 105 -46 40 0 80 3 89 6 9 3 23 30 32 60 11 40 20 54 33
                        54 25 0 43 24 39 52 -2 16 -13 26 -35 33 -31 9 -32 11 -26 50 3 22 12 48 21
                        57 15 18 10 68 -8 68 -5 0 -16 14 -25 30 -15 30 -16 30 -100 30 l-85 0 -2 163
                        -3 162 -72 3 -73 3 0 52 c0 47 -4 57 -33 85 l-33 32 -125 0 -125 0 -32 -33z
                        m258 -12 c0 -12 -18 -15 -100 -15 -82 0 -100 3 -100 15 0 12 18 15 100 15 82
                        0 100 -3 100 -15z m-230 -140 c0 -113 -2 -135 -15 -135 -13 0 -15 20 -15 123
                        0 110 7 147 27 147 2 0 3 -61 3 -135z m290 -11 c0 -104 -2 -124 -15 -124 -13
                        0 -15 22 -15 136 0 120 2 135 15 124 12 -10 15 -38 15 -136z m-60 71 l0 -45
                        -100 0 -100 0 0 45 0 45 100 0 100 0 0 -45z m40 -420 c0 -6 -37 -11 -85 -13
                        -72 -2 -85 0 -85 13 0 13 13 15 85 13 48 -2 85 -7 85 -13z m358 -2 c3 -10 -19
                        -13 -87 -13 -84 0 -102 5 -84 24 13 12 166 2 171 -11z m-310 -50 c3 -10 -27
                        -13 -127 -13 -120 0 -143 4 -124 24 13 13 246 2 251 -11z m350 0 c3 -10 -27
                        -13 -127 -13 -120 0 -143 4 -124 24 13 13 246 2 251 -11z m-382 -65 c-3 -13
                        -6 -33 -6 -45 0 -22 -3 -23 -89 -23 -96 0 -100 3 -101 68 0 21 3 22 101 22
                        100 0 101 0 95 -22z m354 0 c-1 -65 -5 -68 -100 -68 l-87 0 -7 31 c-12 61 -14
                        59 94 59 97 0 100 -1 100 -22z m60 -113 c0 -12 -13 -15 -55 -15 -42 0 -55 -3
                        -55 -15 0 -9 9 -15 25 -15 23 0 25 -3 19 -27 -14 -59 -20 -63 -94 -63 -67 0
                        -70 1 -85 30 -16 31 -16 31 -93 28 -73 -3 -77 -4 -90 -31 -13 -26 -16 -27 -86
                        -27 -72 0 -74 1 -80 28 -4 15 -9 35 -12 44 -5 16 12 18 225 20 144 2 232 7
                        234 13 1 6 -92 11 -260 13 -225 2 -263 4 -263 17 0 13 46 15 335 15 291 0 335
                        -2 335 -15z"></path>
    </g>
</svg>
